<svg xmlns="http://www.w3.org/2000/svg" xml:space="preserve" viewBox="0 0 881.3 174" class="logo-svg w-full s:max-w-[84rem] h-auto mt-30 s:mt-0" style="enable-background:new 0 0 881.3 174" width="1008" height="199"><path d="M81 126.4 42.2 2.8H0L56.6 171H103L160.1 2.8h-40.4zm198.9-25.5c0 24.8-4.9 40.6-32.7 40.6-27.6 0-33.4-13.7-33.4-38.3V2.8h-39.7v96.3c0 55.4 22.7 74.9 73.1 74.9 52.4 0 72.4-24.6 72.4-76.3V2.8h-39.7v98.1zm138.2 40.4c-24.1 0-42.5-19-42.5-54.5 0-34.3 18.6-54.1 42-54.1 18.8 0 35.7 10 40.1 32.9h39C491.1 27.4 461 0 419 0c-52.7 0-85.4 33.6-85.4 86.8 0 53.8 31.8 87.2 84.2 87.2 42.5 0 73.8-26.7 80.1-65.7h-39c-5.1 25.6-23.4 33-40.8 33zM736.2 0C684.5 0 649 34.6 649 87s35.5 87 87.2 87c51.5 0 87.2-34.6 87.2-87S787.7 0 736.2 0zm0 141.3c-24.8 0-45.2-18.6-45.2-54.3s20.4-54.3 45.2-54.3c24.8 0 45.2 18.6 45.2 54.3s-20.3 54.3-45.2 54.3z" class="fill-current"/> <path d="M661.1 2.8h-48.5l-61 66.6V2.8h-39.7V171h39.7v-49.7L571 100l45.5 71h47.8L598.9 69.8zm158.5 3.7h9.5v25.4h6V6.5h9.5V1.6h-25zm52.5-4.9-7.6 22.7-7.9-22.7h-9.4v30.3h6V9.5l8.1 22.4h6l7.9-22.4v22.4h6.1V1.6z" class="fill-current"/> <path d="M3084.3-990.9h14.5v26.9h-14.5z" style="fill:none"/></svg>